<?xml version="1.0" standalone="no"?>
<!DOCTYPE svg PUBLIC "-//W3C//DTD SVG 20010904//EN"
 "http://www.w3.org/TR/2001/REC-SVG-20010904/DTD/svg10.dtd">
<svg version="1.0" xmlns="http://www.w3.org/2000/svg"
 width="96.000000pt" height="96.000000pt" viewBox="0 0 96.000000 96.000000"
 preserveAspectRatio="xMidYMid meet">
<metadata>
Created by potrace 1.14, written by Peter Selinger 2001-2017
</metadata>
<g transform="translate(0.000000,96.000000) scale(0.100000,-0.100000)"
fill="#000000" stroke="none">
<path d="M260 787 c-51 -17 -114 -84 -129 -139 -24 -84 9 -179 79 -229 43 -31
114 -45 162 -32 42 12 43 11 83 -28 23 -21 46 -39 53 -39 7 0 12 -7 12 -16 0
-9 9 -18 20 -21 11 -3 20 -12 20 -20 0 -8 9 -17 20 -20 11 -3 20 -12 20 -20 0
-8 9 -17 19 -20 11 -3 21 -14 24 -24 5 -17 13 -20 59 -17 l53 3 3 49 3 49
-121 122 c-116 116 -120 122 -110 149 26 68 -4 163 -69 216 -57 48 -127 61
-201 37z m175 -39 c21 -13 46 -43 61 -70 96 -187 -138 -368 -292 -226 -106 97
-74 261 60 315 45 18 127 9 171 -19z m198 -376 c98 -98 108 -112 105 -141 -3
-31 -3 -31 -127 93 -107 108 -123 127 -112 140 8 9 16 16 20 16 3 0 55 -49
114 -108z"/>
</g>
</svg>
