<?xml version="1.0" standalone="no"?>
<!DOCTYPE svg PUBLIC "-//W3C//DTD SVG 20010904//EN"
 "http://www.w3.org/TR/2001/REC-SVG-20010904/DTD/svg10.dtd">
<svg version="1.0" xmlns="http://www.w3.org/2000/svg"
 width="96.000000pt" height="96.000000pt" viewBox="0 0 96.000000 96.000000"
 preserveAspectRatio="xMidYMid meet">
<metadata>
Created by potrace 1.14, written by Peter Selinger 2001-2017
</metadata>
<g transform="translate(0.000000,96.000000) scale(0.100000,-0.100000)"
fill="#000000" stroke="none">
<path d="M329 737 c-43 -28 -59 -83 -40 -130 23 -58 22 -61 -20 -90 -48 -33
-92 -118 -87 -169 3 -32 4 -33 55 -36 50 -3 52 -4 55 -35 3 -32 4 -32 61 -35
51 -3 59 -6 72 -31 33 -65 130 -62 156 6 7 19 17 22 66 25 57 3 58 3 61 35 3
31 5 32 55 35 51 3 52 4 55 37 6 60 -43 148 -99 176 -32 17 -38 45 -14 65 9 8
15 29 15 55 0 55 -36 101 -85 111 -44 8 -71 -2 -106 -39 l-30 -31 -22 25 c-46
54 -94 62 -148 26z m115 -18 l27 -21 -36 -32 c-47 -41 -56 -89 -26 -145 l21
-41 -28 -14 c-37 -20 -78 -64 -94 -105 -13 -31 -17 -34 -61 -35 -47 -1 -47 -1
-47 31 0 51 38 118 82 144 45 28 56 59 34 91 -19 26 -21 67 -5 102 22 47 89
60 133 25z m209 10 c23 -11 38 -31 50 -71 3 -9 -3 -33 -14 -54 -10 -21 -19
-44 -19 -51 0 -7 20 -27 44 -45 50 -37 86 -99 86 -147 0 -31 -1 -31 -49 -31
-46 0 -49 2 -61 33 -16 39 -56 84 -92 103 l-28 14 21 41 c30 56 21 104 -26
145 l-36 32 27 21 c30 23 61 27 97 10z m-95 -79 c31 -25 39 -78 18 -118 -23
-45 -20 -58 23 -89 47 -33 78 -83 87 -141 l7 -42 -51 0 c-46 0 -53 3 -66 29
-21 40 -67 57 -106 41 -17 -7 -38 -26 -46 -41 -13 -26 -20 -29 -64 -29 -56 0
-58 4 -39 75 7 28 28 57 67 93 55 53 56 54 42 85 -23 52 -19 112 9 136 31 27
88 27 119 1z m-8 -350 c42 -42 10 -120 -50 -120 -59 0 -90 67 -54 118 20 29
76 30 104 2z"/>
</g>
</svg>
