<?xml version="1.0" standalone="no"?>
<!DOCTYPE svg PUBLIC "-//W3C//DTD SVG 20010904//EN"
 "http://www.w3.org/TR/2001/REC-SVG-20010904/DTD/svg10.dtd">
<svg version="1.0" xmlns="http://www.w3.org/2000/svg"
 width="96.000000pt" height="96.000000pt" viewBox="0 0 96.000000 96.000000"
 preserveAspectRatio="xMidYMid meet">
<metadata>
Created by potrace 1.14, written by Peter Selinger 2001-2017
</metadata>
<g transform="translate(0.000000,96.000000) scale(0.100000,-0.100000)"
fill="#000000" stroke="none">
<path d="M710 746 c-7 -9 -10 -25 -7 -35 7 -26 -76 -144 -106 -151 -12 -3 -27
-16 -33 -29 -17 -33 -64 -61 -91 -55 -13 4 -29 2 -36 -4 -19 -16 -64 -2 -82
24 -24 37 -75 26 -75 -16 0 -25 -63 -80 -92 -80 -47 0 -64 -50 -26 -74 22 -14
51 2 56 30 6 32 63 84 92 84 14 0 31 5 36 10 14 14 63 -5 82 -31 18 -26 53
-21 68 10 17 33 64 61 91 55 31 -8 54 12 51 45 -2 33 74 144 104 151 12 3 26
13 32 23 23 36 -36 76 -64 43z"/>
</g>
</svg>
