<?xml version="1.0" standalone="no"?>
<!DOCTYPE svg PUBLIC "-//W3C//DTD SVG 20010904//EN"
 "http://www.w3.org/TR/2001/REC-SVG-20010904/DTD/svg10.dtd">
<svg version="1.0" xmlns="http://www.w3.org/2000/svg"
 width="96.000000pt" height="96.000000pt" viewBox="0 0 96.000000 96.000000"
 preserveAspectRatio="xMidYMid meet">
<metadata>
Created by potrace 1.14, written by Peter Selinger 2001-2017
</metadata>
<g transform="translate(0.000000,96.000000) scale(0.100000,-0.100000)"
fill="#000000" stroke="none">
<path d="M579 564 l-34 -36 -191 7 c-186 7 -192 7 -213 -14 -27 -27 -27 -55 0
-82 21 -21 27 -21 213 -14 l191 7 34 -36 c31 -32 40 -36 86 -36 44 0 55 4 79
29 16 16 25 34 22 40 -4 6 -34 11 -66 11 -50 0 -60 3 -65 20 -3 11 -3 29 0 40
5 17 15 20 65 20 32 0 62 5 66 11 3 6 -6 24 -22 40 -24 25 -35 29 -79 29 -46
0 -55 -4 -86 -36z m149 -4 c12 -19 10 -20 -36 -20 -76 0 -110 -49 -68 -97 15
-18 30 -23 68 -23 46 0 48 -1 36 -20 -10 -15 -24 -20 -58 -20 -40 0 -51 5 -81
36 l-34 36 -199 -4 c-180 -3 -200 -1 -210 15 -8 12 -8 22 0 35 10 15 30 17
210 14 l199 -4 34 36 c30 31 41 36 81 36 34 0 48 -5 58 -20z"/>
<path d="M124 266 c-3 -7 -4 -33 -2 -57 l3 -44 146 -3 c121 -2 148 0 159 13
19 22 187 21 228 -2 26 -15 32 -15 68 -1 34 14 39 20 39 49 0 29 -4 34 -43 47
-38 12 -45 12 -67 -2 -34 -22 -207 -23 -225 -1 -18 21 -298 22 -306 1z"/>
</g>
</svg>
