<?xml version="1.0" standalone="no"?>
<!DOCTYPE svg PUBLIC "-//W3C//DTD SVG 20010904//EN"
 "http://www.w3.org/TR/2001/REC-SVG-20010904/DTD/svg10.dtd">
<svg version="1.0" xmlns="http://www.w3.org/2000/svg"
 width="96.000000pt" height="96.000000pt" viewBox="0 0 96.000000 96.000000"
 preserveAspectRatio="xMidYMid meet">
<metadata>
Created by potrace 1.14, written by Peter Selinger 2001-2017
</metadata>
<g transform="translate(0.000000,96.000000) scale(0.100000,-0.100000)"
fill="#000000" stroke="none">
<path d="M167 694 c-4 -4 -7 -108 -7 -231 0 -206 1 -223 18 -223 9 -1 26 -15
37 -33 39 -61 111 -61 150 0 l20 32 95 0 95 0 20 -32 c39 -61 111 -61 150 0
11 18 28 32 38 33 18 0 19 9 14 133 -3 94 -9 148 -23 187 l-19 55 -97 3 -97 3
-3 37 -3 37 -191 3 c-104 1 -193 -1 -197 -4z m373 -154 l0 -140 -180 0 -180 0
0 140 0 140 180 0 180 0 0 -140z m90 -15 l0 -75 75 0 75 0 0 -95 c0 -52 -3
-95 -7 -95 -5 1 -17 15 -28 33 -11 17 -32 36 -48 41 -38 14 -78 -2 -102 -41
-11 -18 -23 -32 -27 -33 -5 0 -8 77 -8 170 l0 170 35 0 35 0 0 -75z m126 18
c9 -32 19 -64 21 -70 4 -10 -13 -13 -66 -13 l-71 0 0 70 0 70 50 0 49 0 17
-57z m-216 -218 l0 -65 -77 0 c-77 1 -78 1 -98 33 -11 17 -32 36 -48 41 -38
14 -78 -2 -102 -41 -11 -18 -23 -32 -27 -33 -5 0 -8 29 -8 65 l0 65 180 0 180
0 0 -65z"/>
</g>
</svg>
